<?xml version="1.0" encoding="UTF-8"?>
<svg width="29px" height="48px" viewBox="0 0 29 48" version="1.1" xmlns="http://www.w3.org/2000/svg" xmlns:xlink="http://www.w3.org/1999/xlink">


    <defs></defs>
    <g id="Symbols" stroke="none" stroke-width="1" fill="none" fill-rule="evenodd">
        <g id="logo" transform="translate(-24.000000, -16.000000)" fill="#006aff">
            <g id="logo/Prog" transform="translate(24.000000, 16.000000)">
                <g id="new-prog-logo-03">
                    <path d="M15.5763661,30.4468732 L13.4575423,30.4468732 L13.4575423,16.8547606 C13.4575423,16.6336901 13.3377768,16.427493 13.1454675,16.3152676 L0.795927672,9.11594366 L1.87244893,7.31290141 L14.2226732,14.5122254 C15.0576102,14.999662 15.5763661,15.8967887 15.5763661,16.8547606 L15.5763661,30.4468732" id="Fill-1"></path>
                    <path d="M12.981902,47.604507 C12.5220022,47.604507 12.0634713,47.4807887 11.6480559,47.2347042 L1.536421,41.2401127 C0.759655817,40.7790423 0.277856092,39.9380282 0.277856092,39.0436056 L2.39667989,39.0436056 C2.39667989,39.2065352 2.48496421,39.3613521 2.62662975,39.4451831 L12.7382646,45.4397746 C12.9449458,45.5628169 13.126305,45.4965634 13.2159581,45.4458592 C13.3062955,45.3951549 13.456858,45.276169 13.456858,45.0375211 L13.456858,18.6294085 L15.5756818,18.6294085 L15.5756818,45.0375211 C15.5756818,45.9731831 15.0836164,46.8067606 14.2603138,47.267831 C13.8579015,47.4922817 13.4192174,47.604507 12.981902,47.604507" id="Fill-2"></path>
                    <path d="M15.0432383,31.3372394 L13.9653483,29.5355493 L25.8194009,22.6134085 C26.0356633,22.487662 26.2834069,22.0576901 26.2834069,21.8082254 L26.2834069,9.52090141 C26.2834069,9.27143662 26.0356633,8.84214085 25.8187165,8.71504225 L14.6640948,2.18230986 C14.4560449,2.06129577 13.9804045,2.06061972 13.7723547,2.18230986 L12.6958334,0.379267606 C13.5656735,-0.127774648 14.8755665,-0.126422535 15.7440379,0.381971831 L26.8993441,6.91470423 C27.7561811,7.41566197 28.4022307,8.53656338 28.4022307,9.52090141 L28.4022307,21.8082254 C28.4022307,22.7925634 27.7561811,23.9134648 26.8993441,24.4150986 L15.0432383,31.3372394" id="Fill-3"></path>
                    <path d="M2.39667989,39.0436056 L0.277856092,39.0436056 L0.277856092,9.36202817 C0.277856092,8.28439437 0.86094326,7.27504225 1.8005896,6.72743662 L12.6958334,0.379267606 L13.7723547,2.18230986 L2.87711086,8.52980282 C2.58077666,8.70287324 2.39667989,9.02197183 2.39667989,9.36202817 L2.39667989,39.0436056" id="Fill-4"></path>
                </g>
            </g>
        </g>
    </g>
</svg>